<?xml version="1.0"?>
<svg xmlns="http://www.w3.org/2000/svg" xmlns:xlink="http://www.w3.org/1999/xlink" xmlns:svgjs="http://svgjs.com/svgjs" version="1.1" width="512" height="512" x="0" y="0" viewBox="0 0 510 510" style="enable-background:new 0 0 512 512" xml:space="preserve" class=""><g><g xmlns="http://www.w3.org/2000/svg"><g><g><path d="m255 0c-98.131 0-158.58 55.352-158.747 55.445 0 0-2.513 3.137-2.983 5.222-3.818 16.948-7.385 39.663-7.385 56.238 0 140.833 118.763 254.972 259.596 254.972 54.231 0 114.568-25.992 154.949-57.243.903-.699 3.769-5.396 3.769-5.396.178-1.087 5.8-23.477 5.8-54.239.001-140.832-114.166-254.999-254.999-254.999z" fill="#dc4055" data-original="#afe6ff" style="" class=""/></g><g><path d="m345.459 364.679c-140.833 0-255-114.167-255-255 0-18.615 2.007-36.753 5.795-54.234-58.645 46.72-96.254 118.747-96.254 199.555 0 42.919 10.616 83.353 29.347 118.84l31.739 10.438h406.018l8.587-1.447c13.063-22.513 22.803-47.254 28.509-73.593-43.56 34.696-98.725 55.441-158.741 55.441z" fill="#cd2e43" data-original="#90d8f9" style="" class=""/></g><g><path d="m59.356 382.828 23.931 60.683c45.312 41.303 105.569 66.489 171.713 66.489 93.605 0 176.326-50.72 220.685-127.172z" fill="#c8bec3" data-original="#c8bec3" style="" class=""/></g></g><g><path d="m158.187 360.438c-50.647 0-96.367 5.146-128.855 13.411 4.424 8.384 9.302 16.491 14.601 24.289l21.116 5.844-8.595 11.046c8.206 10.169 17.178 19.694 26.828 28.489 22.778 2.572 48.154 4.008 74.905 4.008 98.583 0 178.501-19.495 178.501-43.543s-79.918-43.544-178.501-43.544z" fill="#ffc305" data-original="#ffc305" style="" class=""/></g><g><path d="m296.064 403.981c0-12.249-57.449-22.179-128.316-22.179-59.165 0-108.978 6.921-123.815 16.335 3.945 5.806 8.123 11.44 12.521 16.89 22.151 6.653 63.696 11.132 111.294 11.132 70.867.001 128.316-9.929 128.316-22.178z" fill="#f2b200" data-original="#f2b200" style="" class=""/></g><g><path d="m180.333 193.767c-54.384 0-101.046 33.065-120.978 80.189v81.983l167.143 7.811 85.13-38.688c.001-72.512-58.782-131.295-131.295-131.295z" fill="#ffdc64" data-original="#ffdc64" style="" class=""/></g><g><path d="m260.153 403.981c17.671 0 33.647-10.499 40.682-26.71 6.944-16.001 10.794-33.655 10.794-52.209 0-12.247-1.683-24.099-4.819-35.346 0 0-35.711 50.381-105.023 57.332-73.019 7.322-130.326-31.657-142.514-72.888-6.59 15.654-10.234 32.852-10.234 50.902 0 18.554 3.85 36.208 10.794 52.209 7.035 16.21 23.011 26.71 40.682 26.71z" fill="#ffc305" data-original="#ffc305" style="" class=""/></g><g><g><path d="m279.539 329.49 179.417-290.554-17.275-3.892-13.417 7.047-9.238 9.749-7.89-.754-40.856 21.456-15.515 14.632-27.109 7.753-15.36 8.067-7.262 9.871-9.865-.876-40.856 21.456-12.02 11.385-25.046 8.081-20.918 10.986-8.126 9.794-9.001-.8-2.458 1.291z" fill="#e69632" data-original="#e69632" style="" class=""/></g><g><path d="m457.859 26.549-16.177 8.496-5.972 10.746-124.565 223.736c-7.003 12.578-24.093 14.963-34.272 4.784l-100.129-100.129-34.431 18.082 171.486 171.486 19.373-36.889-2.909-9.79 11.904-7.337 10.985-20.918 10.066-27.552 9.4-9.514 21.456-40.856.184-9.73 8.811-7.398 8.066-15.36 9.078-29.747 13.307-12.877 21.457-40.856-.553-10.197 9.548-6.93 15.542-29.595c7.319-13.934-7.721-28.973-21.655-21.655z" fill="#d77d14" data-original="#d77d14" style="" class=""/></g><g><path d="m196.329 163.897-17.128 8.995v5.005l32.998 32.998h24.986v24.985l32.998 32.998h24.985v13.016l17.862-17.862c2.472-4.111 4.976-8.204 7.502-12.281h-8.237v-40.856h33.284c8.536-14.308 16.825-28.757 24.7-43.459v-14.524h7.656c3.047-5.759 6.15-11.466 9.335-17.128h-16.99v-40.857h40.856v1.243c5.358-8.795 10.563-17.678 15.306-26.83.537-1.036 1.148-1.998 1.822-2.889v-24.36l-3.514 1.846-13.613 7.149v26.714h-40.857v-5.257l-42.624 22.385h25.496v40.856h-40.856v-32.79l-17.128 8.995v23.795h-40.856v-2.338l-37.066 19.466h19.938v40.856h-40.856zm98.84 87.854h-40.856v-40.856h40.856zm57.983-98.84v40.856h-40.856v-40.856zm-98.839 0h40.856v40.856h-40.856z" fill="#ffaa50" data-original="#ffaa50" style="" class=""/></g><g><g><path d="m428.264 59.163-19.912 35.764h2.784v40.857h-25.53l-9.536 17.127h35.066v25.496l22.385-42.624-5.257.001v-40.857h26.714l5.682-10.819 1.467-2.794 1.846-3.514h-35.709z" fill="#e69632" data-original="#e69632" style="" class=""/></g><g><path d="m213.457 210.895-34.255-34.255v17.127h-33.864v1.522l15.605 15.606h18.259v18.258l17.127 17.127v-35.385z" fill="#e69632" data-original="#e69632" style="" class=""/></g><g><path d="m271.44 268.878-34.255-34.255v17.128h-35.386l17.128 17.127h18.258v18.258l17.128 17.128v-35.386z" fill="#e69632" data-original="#e69632" style="" class=""/></g></g><g><g><path d="m343.788 210.895h9.364v40.856h-32.111l-2.079 3.735c-2.11 3.791-7.224 4.376-10.275 1.291-.024-.025-.049-.049-.073-.074-3.712-3.712-8.58-5.564-13.445-5.556v.604h-4.717c-3.176.818-6.182 2.465-8.669 4.952l-12.175 12.175h25.562v16.332 24.524h-35.386l17.128 17.128h18.258v18.258l15.605 15.605h1.522v-33.863h20.876l8.256-15.72.739-1.407h-29.871v-31.392-9.465h40.856v19.939l19.466-37.066h-2.339v-40.856h23.795l2.729-5.196 6.266-11.932h-32.79v-30.456z" fill="#e69632" data-original="#e69632" style="" class=""/></g><g><path d="m254.313 304.264v-20.091l-10.046 10.045z" fill="#e69632" data-original="#e69632" style="" class=""/></g><g><path d="m282.414 309.734h-22.631l11.316 11.316z" fill="#e69632" data-original="#e69632" style="" class=""/></g></g><g><path d="m153.623 182.085 170.357 170.357c6.794 6.794 6.794 17.81 0 24.604-6.794 6.794-17.81 6.794-24.604 0l-170.358-170.357c-6.794-6.794-6.794-17.81 0-24.604 6.795-6.795 17.81-6.795 24.605 0z" fill="#ffaa50" data-original="#ffaa50" style="" class=""/></g><g><g/><g><path d="m255.502 252.939 15.939 15.939h23.728v11.578c6.432-.888 12.469-4.63 15.976-10.929l9.99-17.944-8.839.168v-8.229h-17.127v8.229h-38.478z" fill="#ffaa50" data-original="#ffaa50" style="" class=""/></g></g></g><g><path d="m78.619 362.905c-10.639 0-19.263-8.624-19.263-19.263v-69.482h38.526v69.482c0 10.639-8.624 19.263-19.263 19.263z" fill="#ffdc64" data-original="#ffdc64" style="" class=""/></g><g><path d="m155.243 391.421c-10.639 0-19.263-8.624-19.263-19.263v-69.482h38.526v69.482c0 10.639-8.625 19.263-19.263 19.263z" fill="#ffdc64" data-original="#ffdc64" style="" class=""/></g><g><path d="m222.297 369.407c-7.911 0-14.323-6.413-14.323-14.323v-30.049h28.647v30.049c-.001 7.91-6.414 14.323-14.324 14.323z" fill="#ffdc64" data-original="#ffdc64" style="" class=""/></g><g><path d="m97.882 343.642c0-8.597 9.135-14.117 16.745-10.119l9.117 4.79c7.523 3.952 12.235 11.749 12.235 20.247v13.597h12.104v-47.123l-58.128-16.624v35.009z" fill="#ffdc64" data-original="#ffdc64" style="" class=""/></g><g><path d="m174.506 372.158v-10.512c0-7.639 6.193-13.832 13.832-13.832h13.351c3.471 0 6.284 2.814 6.284 6.284l7.266-.22v-24.388h-47.492l-1.389 42.668z" fill="#ffdc64" data-original="#ffdc64" style="" class=""/></g><g><path d="m254.313 331.983-4.294 2.015c-8.177 3.836-13.398 12.054-13.398 21.086h-10.121l-2.232-23.101z" fill="#ffdc64" data-original="#ffdc64" style="" class=""/></g><g><ellipse cx="153.309" cy="428.96" fill="#ffdc64" rx="27.024" ry="10.569" data-original="#ffdc64" style="" class=""/></g></g></g></svg>
